<?xml version="1.0" encoding="UTF-8" standalone="no"?>
<svg
   version="1.1"
   id="svg2"
   xml:space="preserve"
   width="3733.333"
   height="1024"
   viewBox="0 0 3733.3331 1024"
   sodipodi:docname="cs-group.svg"
   inkscape:version="1.4.2 (ebf0e940d0, 2025-05-08)"
   xmlns:inkscape="http://www.inkscape.org/namespaces/inkscape"
   xmlns:sodipodi="http://sodipodi.sourceforge.net/DTD/sodipodi-0.dtd"
   xmlns="http://www.w3.org/2000/svg"
   xmlns:svg="http://www.w3.org/2000/svg"
   xmlns:rdf="http://www.w3.org/1999/02/22-rdf-syntax-ns#"
   xmlns:cc="http://creativecommons.org/ns#"
   xmlns:dc="http://purl.org/dc/elements/1.1/"><metadata
     id="metadata8"><rdf:RDF><cc:Work
         rdf:about=""><dc:format>image/svg+xml</dc:format><dc:type
           rdf:resource="http://purl.org/dc/dcmitype/StillImage" /></cc:Work></rdf:RDF></metadata><defs
     id="defs6"><clipPath
       clipPathUnits="userSpaceOnUse"
       id="clipPath54"><path
         d="m 22507.1,7647.19 c -156.9,416.82 -581.2,798.87 -1164.2,1048.11 -246.5,105.41 -1987,795.21 -1987,795.21 -990.8,396.26 -1846.5,738.49 -1822.6,1290.69 30.4,703.8 856.2,1082.8 1682.9,1106.3 1698,-24.9 2518.7,-704 2553.4,-733.4 -0.3,0.2 26.5,-22.9 26.5,-22.9 l 19.4,-16.7 h 177.1 l 162.6,36.6 -80.5,919.3 -103.6,50.8 c -40.8,20.1 -1018.5,490.3 -2653.5,490.3 -25.8,0 -143.2,0 -177,0 -1958.8,0 -3334.3,-725.4 -3504.2,-1848.1 -191.2,-1263.1 1504.7,-1881.13 2867.3,-2377.71 0,0 1265.8,-460.46 1573.1,-603.99 338.9,-158.28 569.1,-387.02 648.4,-644.12 55.5,-180.17 31.6,-365.15 -69.2,-534.94 -238,-400.78 -862.5,-603.05 -1906.9,-617.28 -1899.4,19.02 -2977.4,979.97 -3095,1090.59 l -7.6,7.18 -1.7,0.59 -287.3,272.68 -14.7,14.01 c -0.2,0.17 -532.5,0.17 -532.5,0.17 l -15.3,-18.21 c -1.5,-1.81 -155.1,-184.14 -351.8,-349.74 C 14162.7,6765.54 13107,6001.14 11172.7,5977.24 10128.2,5989 9241.45,6216.99 8536.9,6656.67 7720.2,7166.31 7291.19,7927.32 7328.89,8799.53 c 34.79,804.85 526.23,1680.77 1222.93,2179.57 835.81,598.4 1851.48,905.2 3018.88,913.2 1342,-15.8 2342.8,-277.3 2899.3,-758.9 l 19.5,-16.8 h 177 l 177.8,40.1 -74.6,1055.7 -32,10.9 c -46.4,15.8 -1158.9,388.2 -3030.7,388.2 -20.5,0 -40.3,-0.6 -60.7,-0.7 -38.6,0.3 -77.1,0.7 -116.3,0.7 -1771.74,0 -3116.41,-328.3 -4360.01,-1064.7 -1016.82,-602 -1729.51,-1688.99 -1773.4,-2704.72 -49.62,-1148.18 394.66,-1998.62 1358.17,-2599.9 1088.78,-679.43 2499.25,-1038.57 4078.94,-1038.57 40,0 157.8,0 177,0 1975.9,0 3714.3,597.79 3731.7,603.81 l 35.2,17.17 292,778.92 338.7,-791.28 23.6,-10.68 c 13.2,-5.94 1452.7,-598.52 3075.6,-598.52 34.2,0 151.5,0 177,0 2061.2,0 2959,558.01 3185.1,729.05 625.4,473.12 863.8,1114.29 637.5,1715.11 z"
         id="path52" /></clipPath><linearGradient
       x1="0"
       y1="0"
       x2="1"
       y2="0"
       gradientUnits="userSpaceOnUse"
       gradientTransform="matrix(0,7435.09,7435.09,0,13991.9,5229.07)"
       spreadMethod="pad"
       id="linearGradient72"><stop
         style="stop-opacity:1;stop-color:#003555"
         offset="0"
         id="stop56" /><stop
         style="stop-opacity:1;stop-color:#003555"
         offset="0.06335022"
         id="stop58" /><stop
         style="stop-opacity:1;stop-color:#eaf3f6"
         offset="0.19"
         id="stop60" /><stop
         style="stop-opacity:1;stop-color:#053d5d"
         offset="0.35"
         id="stop62" /><stop
         style="stop-opacity:1;stop-color:#eaf3f6"
         offset="0.51"
         id="stop64" /><stop
         style="stop-opacity:1;stop-color:#053d5d"
         offset="0.67"
         id="stop66" /><stop
         style="stop-opacity:1;stop-color:#eaf3f6"
         offset="0.86"
         id="stop68" /><stop
         style="stop-opacity:1;stop-color:#053d5d"
         offset="1"
         id="stop70" /></linearGradient><clipPath
       clipPathUnits="userSpaceOnUse"
       id="clipPath82"><path
         d="m 21631.1,6013.24 c -219.6,-166.17 -1094.2,-708.42 -3123.6,-708.42 -1491.2,0 -2822,505.06 -3010.3,580.02 l -527.1,1150.24 c 0,0 -451.2,-1064.6 -465.9,-1140.8 -226.7,-75.07 -1846.3,-588.88 -3670.5,-588.88 -1560.63,0 -2952.46,353.8 -4025.04,1023.13 -929.65,580.12 -1358.25,1400.89 -1310.37,2509.15 42.48,982.79 735.12,2036.32 1723.58,2621.52 1227.01,726.6 2555.67,1050.5 4308.13,1050.5 1706.2,0 2770.3,-310.4 2965.9,-372.4 l 63.7,-900.5 -43,-9.7 c -604.5,509.4 -1639,767.8 -3076,767.8 -1209,0 -2260.39,-313.9 -3125.12,-933 -720.77,-516.1 -1229.27,-1423.5 -1265.36,-2257.96 -39.34,-910.48 406.64,-1703.73 1255.85,-2233.65 740.04,-461.81 1673.49,-695.98 2774.43,-695.98 2028.1,0 3136.9,804.07 3428.4,1050.5 169.5,142.67 304.3,292.94 348.6,343.98 h 267.5 l 280.8,-266.53 7.7,-7.3 c -0.1,0.09 0.8,-0.19 1.9,-0.55 217.1,-201.75 1302.9,-1111.75 3213.4,-1111.75 1156.1,-0.01 1847.9,218.5 2114.8,668 115.9,195.19 143.2,408.51 79,616.91 -87.9,284.91 -337.4,535.79 -702.6,706.37 -311.4,145.43 -1581.3,607.38 -1581.3,607.38 -1327.8,483.9 -2980.3,1086.11 -2801.6,2266.88 162,1070.1 1498,1761.5 3403.6,1761.5 1611.6,0 2568.7,-460.3 2608.6,-479.9 0,0 29.4,-14.4 52.1,-25.5 l 67.7,-773.4 -25.8,-5.8 -7.4,6.3 c -36.8,31.3 -914.8,759.1 -2714.9,759.1 -901.6,0 -1832.2,-413.9 -1866.4,-1205 -27,-624.2 859.8,-978.88 1886.5,-1389.52 0,0 1739.7,-689.46 1984.9,-794.28 557.5,-238.41 961.7,-599.38 1108.9,-990.37 209.4,-556.27 -16.2,-1153.68 -603.7,-1598.09 z"
         id="path80" /></clipPath><linearGradient
       x1="0"
       y1="0"
       x2="1"
       y2="0"
       gradientUnits="userSpaceOnUse"
       gradientTransform="matrix(0,7228.54,7228.54,0,13903.1,5317.59)"
       spreadMethod="pad"
       id="linearGradient94"><stop
         style="stop-opacity:1;stop-color:#205e7c"
         offset="0"
         id="stop84" /><stop
         style="stop-opacity:1;stop-color:#205e7c"
         offset="0.17807152"
         id="stop86" /><stop
         style="stop-opacity:1;stop-color:#eaf3f6"
         offset="0.5"
         id="stop88" /><stop
         style="stop-opacity:1;stop-color:#eaf3f6"
         offset="0.67807152"
         id="stop90" /><stop
         style="stop-opacity:1;stop-color:#205e7c"
         offset="1"
         id="stop92" /></linearGradient></defs><sodipodi:namedview
     pagecolor="#ffffff"
     bordercolor="#666666"
     borderopacity="1"
     objecttolerance="10"
     gridtolerance="10"
     guidetolerance="10"
     inkscape:pageopacity="0"
     inkscape:pageshadow="2"
     inkscape:window-width="1276"
     inkscape:window-height="1413"
     id="namedview4"
     inkscape:showpageshadow="2"
     inkscape:pagecheckerboard="0"
     inkscape:deskcolor="#d1d1d1"
     inkscape:zoom="0.23665619"
     inkscape:cx="1865.5755"
     inkscape:cy="849.33337"
     inkscape:window-x="0"
     inkscape:window-y="0"
     inkscape:window-maximized="0"
     inkscape:current-layer="g10" /><g
     id="g10"
     inkscape:groupmode="layer"
     inkscape:label="ink_ext_XXXXXX"
     transform="matrix(1.3333333,0,0,-1.3333333,0,1698.6667)"><path
       d="m 1400,791.036 c -633.788,0 -1104.356,-100.32 -1230.659,-139.538 0,0 -124.8906,-35.828 -160.32108,-52.486 C 6.32813,597.748 0,594.471 0,594.471 l 55.1316,96.582 C 253.355,794.277 781.463,974.509 1400,974.509 c 618.54,0 1146.64,-180.232 1344.87,-283.456 L 2800,594.471 c 0,0 -6.33,3.277 -9.02,4.541 -35.43,16.658 -160.32,52.486 -160.32,52.486 -126.3,39.218 -596.87,139.538 -1230.66,139.538"
       style="fill:#ffffff;fill-opacity:1;fill-rule:evenodd;stroke:none;stroke-width:0.1"
       id="path14" /><path
       d="m 1400,794.089 c -606.555,0 -1083.604,-91.712 -1234.125,-140.248 0,0 -111.6492,-32.193 -146.4223,-47.657 -2.9949,-1.311 -9.2101,-4.322 -9.2101,-4.322 l 51.5172,89.191 C 260.051,793.273 786.224,969.786 1400,969.786 c 613.78,0 1139.95,-176.513 1338.24,-278.733 l 51.52,-89.191 c 0,0 -6.22,3.011 -9.21,4.322 -34.78,15.464 -146.42,47.657 -146.42,47.657 C 2483.6,702.377 2006.56,794.089 1400,794.089"
       style="fill:#f3fbf8;fill-opacity:1;fill-rule:evenodd;stroke:none;stroke-width:0.1"
       id="path16" /><path
       d="m 1400,797.141 c -579.32,0 -1062.85,-83.103 -1237.59,-140.956 0,0 -98.4084,-28.56 -132.5237,-42.827 -3.298,-1.361 -9.3996,-4.105 -9.3996,-4.105 l 47.9012,81.8 C 266.745,792.269 790.987,965.063 1400,965.063 c 609.01,0 1133.25,-172.794 1331.61,-274.01 l 47.9,-81.8 c 0,0 -6.1,2.744 -9.4,4.105 -34.11,14.267 -132.52,42.827 -132.52,42.827 C 2462.85,714.038 1979.32,797.141 1400,797.141"
       style="fill:#e7f7f1;fill-opacity:1;fill-rule:evenodd;stroke:none;stroke-width:0.1"
       id="path18" /><path
       d="m 1400,800.193 c -552.086,0 -1042.097,-74.496 -1241.056,-141.664 0,0 -85.1674,-24.925 -118.6256,-38 -3.5996,-1.407 -9.5887,-3.884 -9.5887,-3.884 l 44.2859,74.408 C 273.44,791.266 795.749,960.342 1400,960.342 c 604.25,0 1126.56,-169.076 1324.99,-269.289 l 44.28,-74.408 c 0,0 -5.99,2.477 -9.59,3.884 -33.46,13.075 -118.62,38 -118.62,38 C 2442.1,725.697 1952.09,800.193 1400,800.193"
       style="fill:#daf2ea;fill-opacity:1;fill-rule:evenodd;stroke:none;stroke-width:0.1"
       id="path20" /><path
       d="m 1400,803.244 c -553.19,0 -1044.507,-73.63 -1244.521,-142.373 0,0 -76.3544,-22.354 -105.0083,-33.779 -4.0621,-1.647 -9.7996,-3.7 -9.7996,-3.7 l 39.4672,65.854 C 272.771,788.253 797.338,955.62 1400,955.62 c 602.66,0 1127.23,-167.367 1319.87,-266.374 l 39.46,-65.854 c 0,0 -5.74,2.053 -9.8,3.7 -28.65,11.425 -105.01,33.779 -105.01,33.779 C 2444.51,729.614 1953.19,803.244 1400,803.244"
       style="fill:#ceeee4;fill-opacity:1;fill-rule:evenodd;stroke:none;stroke-width:0.1"
       id="path22" /><path
       d="m 1400,806.296 c -554.293,0 -1046.917,-72.766 -1247.988,-143.082 0,0 -67.5386,-19.783 -91.3882,-29.559 -4.523,-1.886 -10.0101,-3.515 -10.0101,-3.515 l 34.6445,57.298 C 272.101,785.241 798.927,950.898 1400,950.898 c 601.07,0 1127.9,-165.657 1314.74,-263.46 l 34.65,-57.298 c 0,0 -5.49,1.629 -10.01,3.515 -23.85,9.776 -91.39,29.559 -91.39,29.559 C 2446.92,733.53 1954.29,806.296 1400,806.296"
       style="fill:#c2eade;fill-opacity:1;fill-rule:evenodd;stroke:none;stroke-width:0.1"
       id="path24" /><path
       d="m 1400,809.347 c -555.397,0 -1049.326,-71.901 -1251.454,-143.789 0,0 -58.7245,-17.213 -77.769,-25.339 -4.986,-2.127 -10.2223,-3.332 -10.2223,-3.332 l 29.8258,48.744 C 271.431,782.229 800.516,946.177 1400,946.177 c 599.48,0 1128.57,-163.948 1309.62,-260.546 l 29.83,-48.744 c 0,0 -5.24,1.205 -10.23,3.332 -19.04,8.126 -77.76,25.339 -77.76,25.339 C 2449.33,737.446 1955.4,809.347 1400,809.347"
       style="fill:#b6e6d8;fill-opacity:1;fill-rule:evenodd;stroke:none;stroke-width:0.1"
       id="path26" /><path
       d="m 1400,812.399 c -556.501,0 -1052.641,-71.94 -1254.921,-144.497 0,0 -52.7466,-16.15 -65.4423,-21.567 -3.3226,-1.418 -9.1406,-3.021 -9.1406,-3.021 l 25.9098,41.714 C 275.783,780.555 802.106,941.456 1400,941.456 c 597.89,0 1124.22,-160.901 1303.6,-256.428 l 25.9,-41.714 c 0,0 -5.66,1.55 -8.98,2.967 -12.7,5.417 -65.6,21.621 -65.6,21.621 C 2452.64,740.459 1956.5,812.399 1400,812.399"
       style="fill:#a9e1d2;fill-opacity:1;fill-rule:evenodd;stroke:none;stroke-width:0.1"
       id="path28" /><path
       d="m 1400,815.451 c -557.606,0 -1055.954,-71.979 -1258.386,-145.206 0,0 -46.7683,-15.085 -53.1167,-17.793 -1.6614,-0.709 -8.0582,-2.711 -8.0582,-2.711 l 21.9909,34.686 c 177.705,94.454 701.266,252.308 1297.57,252.308 596.3,0 1119.86,-157.854 1297.57,-252.308 l 21.99,-34.686 c 0,0 -6.08,1.894 -7.74,2.603 -6.35,2.708 -53.43,17.901 -53.43,17.901 C 2455.96,743.472 1957.61,815.451 1400,815.451"
       style="fill:#9dddcd;fill-opacity:1;fill-rule:evenodd;stroke:none;stroke-width:0.1"
       id="path30" /><path
       d="m 1400,818.503 c -558.711,0 -1059.269,-72.017 -1261.853,-145.914 l -40.7896,-14.022 -6.9769,-2.398 18.0755,27.655 c 88.015,46.691 262.222,108.739 488.766,159.114 226.543,50.374 505.418,89.076 802.778,89.076 292.83,0 567.75,-37.534 792.41,-86.787 231.59,-50.773 409.78,-114.001 499.14,-161.403 l 18.07,-27.655 -6.51,2.237 -41.26,14.183 C 2459.27,746.486 1958.71,818.503 1400,818.503"
       style="fill:#91d9c7;fill-opacity:1;fill-rule:evenodd;stroke:none;stroke-width:0.1"
       id="path32" /><path
       d="M 1399.98,821.981 C 837.869,821.981 343.911,749.4 139.172,676.51 c -0.642,-0.217 -28.471,-9.783 -29.098,-10.001 -0.888,-0.308 -6.412,-2.215 -7.269,-2.522 1.466,0.76 15.034,19.965 16.607,20.742 90.746,46.951 261.141,107.079 482.046,155.718 224.193,49.346 500.412,86.846 798.522,86.846 295.1,0 568.68,-36.721 791.62,-85.319 224.27,-48.905 397.32,-109.821 488.96,-157.245 1.57,-0.777 15.14,-19.982 16.61,-20.742 -0.86,0.307 -6.07,2.106 -6.96,2.415 -0.63,0.217 -28.77,9.891 -29.41,10.108 -204.74,72.89 -698.7,145.471 -1260.82,145.471"
       style="fill:#85d5c2;fill-opacity:1;fill-rule:evenodd;stroke:none;stroke-width:0.1"
       id="path34" /><path
       d="m 1399.97,825.46 c -565.522,0 -1052.88,-73.146 -1259.772,-145.028 -1.286,-0.436 -16.153,-5.545 -17.407,-5.981 -1.776,-0.616 -5.847,-2.032 -7.561,-2.647 2.931,1.522 11.994,12.278 15.139,13.829 93.476,47.21 260.058,105.42 475.326,152.323 221.843,48.318 495.405,84.615 794.275,84.615 297.36,0 569.6,-35.908 790.82,-83.851 216.95,-47.036 384.86,-105.64 478.78,-153.087 3.14,-1.551 12.21,-12.307 15.14,-13.829 -1.71,0.615 -5.63,1.977 -7.41,2.593 -1.25,0.435 -16.27,5.599 -17.56,6.035 -206.89,71.882 -694.25,145.028 -1259.77,145.028"
       style="fill:#79d1be;fill-opacity:1;fill-rule:evenodd;stroke:none;stroke-width:0.1"
       id="path36" /><path
       d="m 1399.95,828.938 c -568.922,0 -1049.681,-73.709 -1258.728,-144.584 -1.929,-0.655 -3.833,-1.308 -5.716,-1.961 -2.664,-0.925 -5.281,-1.849 -7.852,-2.772 4.396,2.283 8.953,4.59 13.672,6.917 96.204,47.47 258.976,103.761 468.607,148.928 219.491,47.289 490.397,82.383 790.017,82.383 299.62,0 570.53,-35.094 790.03,-82.383 209.63,-45.167 372.4,-101.458 468.6,-148.928 4.72,-2.327 9.28,-4.634 13.67,-6.917 -2.57,0.923 -5.19,1.847 -7.85,2.772 -1.88,0.653 -3.79,1.306 -5.71,1.961 -209.05,70.875 -689.81,144.584 -1258.74,144.584"
       style="fill:#6ccdb9;fill-opacity:1;fill-rule:evenodd;stroke:none;stroke-width:0.1"
       id="path38" /><path
       d="m 2189.56,831.49 c 189.81,-40.904 343.02,-92.373 438.72,-136.099 -215.41,67.727 -679.36,137.543 -1228.28,137.543 -548.923,0 -1012.866,-69.816 -1228.275,-137.543 95.695,44.272 247.59,95.25 436.129,136.064 230.024,49.76 502.466,81.874 792.146,81.874 288.5,0 559.99,-32.361 789.56,-81.839"
       style="fill:#60c9b5;fill-opacity:1;fill-rule:evenodd;stroke:none;stroke-width:0.1"
       id="path40" /><path
       d="m 2189.15,827.514 c 159.7,-34.425 297.78,-77.74 395.14,-116.35 -229.58,63.166 -668.05,125.767 -1184.29,125.767 -516.242,0 -954.712,-62.601 -1184.295,-125.767 97.918,39.989 234.79,82.737 393.854,117.116 239.873,51.807 512.461,80.53 790.441,80.53 277.39,0 549.5,-29.629 789.15,-81.296"
       style="fill:#54c5b1;fill-opacity:1;fill-rule:evenodd;stroke:none;stroke-width:0.1"
       id="path42" /><path
       d="m 1400,904.291 c -266.27,0 -539.015,-25.329 -788.736,-79.184 C 481.675,797.16 359.824,762.643 259.683,726.935 503.439,785.54 916.438,840.927 1400,840.927 c 483.56,0 896.56,-55.387 1140.32,-113.992 -99.04,33.496 -221.99,68.657 -351.58,96.603 -249.73,53.856 -522.47,80.753 -788.74,80.753"
       style="fill:#47c1ad;fill-opacity:1;fill-rule:evenodd;stroke:none;stroke-width:0.1"
       id="path44" /><path
       d="m 1941.54,1179.34 c 140.54,-0.56 239.7,-76.9 239.7,-76.9 h 50.35 l 23.79,6.64 -8.92,103.71 -14.85,7.28 c -4.16,2.04 -104.23,50.4 -268,53.93 h -48.31 c -200.5,0 -342.73,-79.49 -360.42,-196.33 -20.2,-133.477 153.16,-196.656 292.46,-247.42 0,0 126.21,-45.912 156.59,-60.1 31.6,-14.758 52.95,-35.708 60.13,-59 4.79,-15.563 2.7,-31.597 -6.08,-46.368 -20.97,-35.319 -75.94,-53.966 -168.06,-57.006 l 0.62,-0.002 c -177.54,6.6 -277.64,96.089 -288.47,106.27 l -29.62,28.018 -1.47,1.399 c -2.49,2.443 -2.49,2.443 -48.03,2.448 l -46.05,0.003 -4.18,-4.986 c -0.14,-0.17 -15.16,-17.942 -34.1,-33.892 -25.99,-21.966 -124.84,-94.071 -306.35,-100.089 l 0.58,0.002 c -96.37,3.098 -178.414,25.381 -243.871,66.228 -78.845,49.202 -120.271,122.502 -116.645,206.396 3.368,77.909 51.03,162.759 118.602,211.139 78.48,56.19 173.574,86.25 282.624,89.34 123.33,-3.37 216.05,-28.76 267.65,-73.4 l 4.44,-3.84 h 52.59 l 26.16,5.9 -8.42,119.01 -5.55,1.9 -3.2,1.08 c -4.7,1.61 -117.29,39.31 -305.93,39.31 l -22.16,-0.06 c 0.09,0 -26.14,0.06 -26.14,0.06 -178.849,0 -314.706,-33.22 -440.51,-107.71 C 608.337,1100.63 535.329,989.029 530.815,884.591 525.702,766.301 571.489,678.674 670.79,616.706 c 110.284,-68.82 252.952,-105.197 412.58,-105.197 0,0 47.18,0 48.3,0 200.12,0 374.34,59.892 376.08,60.497 l 0.49,0.169 0.46,0.224 6.23,3.019 7.46,24.438 11.68,-25.29 5.47,-2.474 c 1.34,-0.607 147.18,-60.644 311.21,-60.644 h 17.7 30.6 c 208.88,0 300.69,57.175 323.85,74.699 65.85,49.811 90.78,117.733 66.7,181.691 -16.54,43.93 -60.72,83.962 -121.22,109.83 -24.8,10.604 -198.89,79.598 -198.89,79.598 -95.96,38.38 -178.83,71.524 -176.72,120.464 2.74,63.31 77.7,101.61 148.77,101.61"
       style="fill:#47c1ad;fill-opacity:1;fill-rule:nonzero;stroke:none;stroke-width:0.1"
       id="path46" /><g
       id="g48"
       transform="scale(0.1)"><g
         id="g50"
         clip-path="url(#clipPath54)"><path
           d="m 22507.1,7647.19 c -156.9,416.82 -581.2,798.87 -1164.2,1048.11 -246.5,105.41 -1987,795.21 -1987,795.21 -990.8,396.26 -1846.5,738.49 -1822.6,1290.69 30.4,703.8 856.2,1082.8 1682.9,1106.3 1698,-24.9 2518.7,-704 2553.4,-733.4 -0.3,0.2 26.5,-22.9 26.5,-22.9 l 19.4,-16.7 h 177.1 l 162.6,36.6 -80.5,919.3 -103.6,50.8 c -40.8,20.1 -1018.5,490.3 -2653.5,490.3 -25.8,0 -143.2,0 -177,0 -1958.8,0 -3334.3,-725.4 -3504.2,-1848.1 -191.2,-1263.1 1504.7,-1881.13 2867.3,-2377.71 0,0 1265.8,-460.46 1573.1,-603.99 338.9,-158.28 569.1,-387.02 648.4,-644.12 55.5,-180.17 31.6,-365.15 -69.2,-534.94 -238,-400.78 -862.5,-603.05 -1906.9,-617.28 -1899.4,19.02 -2977.4,979.97 -3095,1090.59 l -7.6,7.18 -1.7,0.59 -287.3,272.68 -14.7,14.01 c -0.2,0.17 -532.5,0.17 -532.5,0.17 l -15.3,-18.21 c -1.5,-1.81 -155.1,-184.14 -351.8,-349.74 C 14162.7,6765.54 13107,6001.14 11172.7,5977.24 10128.2,5989 9241.45,6216.99 8536.9,6656.67 7720.2,7166.31 7291.19,7927.32 7328.89,8799.53 c 34.79,804.85 526.23,1680.77 1222.93,2179.57 835.81,598.4 1851.48,905.2 3018.88,913.2 1342,-15.8 2342.8,-277.3 2899.3,-758.9 l 19.5,-16.8 h 177 l 177.8,40.1 -74.6,1055.7 -32,10.9 c -46.4,15.8 -1158.9,388.2 -3030.7,388.2 -20.5,0 -40.3,-0.6 -60.7,-0.7 -38.6,0.3 -77.1,0.7 -116.3,0.7 -1771.74,0 -3116.41,-328.3 -4360.01,-1064.7 -1016.82,-602 -1729.51,-1688.99 -1773.4,-2704.72 -49.62,-1148.18 394.66,-1998.62 1358.17,-2599.9 1088.78,-679.43 2499.25,-1038.57 4078.94,-1038.57 40,0 157.8,0 177,0 1975.9,0 3714.3,597.79 3731.7,603.81 l 35.2,17.17 292,778.92 338.7,-791.28 23.6,-10.68 c 13.2,-5.94 1452.7,-598.52 3075.6,-598.52 34.2,0 151.5,0 177,0 2061.2,0 2959,558.01 3185.1,729.05 625.4,473.12 863.8,1114.29 637.5,1715.11"
           style="fill:url(#linearGradient72);fill-opacity:1;fill-rule:nonzero;stroke:none"
           id="path74" /></g></g><g
       id="g76"
       transform="scale(0.1)"><g
         id="g78"
         clip-path="url(#clipPath82)"><path
           d="m 21631.1,6013.24 c -219.6,-166.17 -1094.2,-708.42 -3123.6,-708.42 -1491.2,0 -2822,505.06 -3010.3,580.02 l -527.1,1150.24 c 0,0 -451.2,-1064.6 -465.9,-1140.8 -226.7,-75.07 -1846.3,-588.88 -3670.5,-588.88 -1560.63,0 -2952.46,353.8 -4025.04,1023.13 -929.65,580.12 -1358.25,1400.89 -1310.37,2509.15 42.48,982.79 735.12,2036.32 1723.58,2621.52 1227.01,726.6 2555.67,1050.5 4308.13,1050.5 1706.2,0 2770.3,-310.4 2965.9,-372.4 l 63.7,-900.5 -43,-9.7 c -604.5,509.4 -1639,767.8 -3076,767.8 -1209,0 -2260.39,-313.9 -3125.12,-933 -720.77,-516.1 -1229.27,-1423.5 -1265.36,-2257.96 -39.34,-910.48 406.64,-1703.73 1255.85,-2233.65 740.04,-461.81 1673.49,-695.98 2774.43,-695.98 2028.1,0 3136.9,804.07 3428.4,1050.5 169.5,142.67 304.3,292.94 348.6,343.98 h 267.5 l 280.8,-266.53 7.7,-7.3 c -0.1,0.09 0.8,-0.19 1.9,-0.55 217.1,-201.75 1302.9,-1111.75 3213.4,-1111.75 1156.1,-0.01 1847.9,218.5 2114.8,668 115.9,195.19 143.2,408.51 79,616.91 -87.9,284.91 -337.4,535.79 -702.6,706.37 -311.4,145.43 -1581.3,607.38 -1581.3,607.38 -1327.8,483.9 -2980.3,1086.11 -2801.6,2266.88 162,1070.1 1498,1761.5 3403.6,1761.5 1611.6,0 2568.7,-460.3 2608.6,-479.9 0,0 29.4,-14.4 52.1,-25.5 l 67.7,-773.4 -25.8,-5.8 -7.4,6.3 c -36.8,31.3 -914.8,759.1 -2714.9,759.1 -901.6,0 -1832.2,-413.9 -1866.4,-1205 -27,-624.2 859.8,-978.88 1886.5,-1389.52 0,0 1739.7,-689.46 1984.9,-794.28 557.5,-238.41 961.7,-599.38 1108.9,-990.37 209.4,-556.27 -16.2,-1153.68 -603.7,-1598.09"
           style="fill:url(#linearGradient94);fill-opacity:1;fill-rule:nonzero;stroke:none"
           id="path96" /></g></g></g></svg>
