<?xml version="1.0" encoding="UTF-8" standalone="no"?>
<!-- Generator: visioncortex VTracer 0.6.4 -->

<svg
   version="1.1"
   width="512"
   height="287"
   id="svg13"
   sodipodi:docname="ensiie.svg"
   inkscape:version="1.4.2 (ebf0e940d0, 2025-05-08)"
   xmlns:inkscape="http://www.inkscape.org/namespaces/inkscape"
   xmlns:sodipodi="http://sodipodi.sourceforge.net/DTD/sodipodi-0.dtd"
   xmlns="http://www.w3.org/2000/svg"
   xmlns:svg="http://www.w3.org/2000/svg">
  <defs
     id="defs13" />
  <sodipodi:namedview
     id="namedview13"
     pagecolor="#ffffff"
     bordercolor="#000000"
     borderopacity="0.25"
     inkscape:showpageshadow="2"
     inkscape:pageopacity="0.0"
     inkscape:pagecheckerboard="0"
     inkscape:deskcolor="#d1d1d1"
     inkscape:zoom="1.2747257"
     inkscape:cx="249.07319"
     inkscape:cy="149.05167"
     inkscape:window-width="1276"
     inkscape:window-height="1413"
     inkscape:window-x="0"
     inkscape:window-y="0"
     inkscape:window-maximized="0"
     inkscape:current-layer="svg13" />
  <path
     d="m 0,0 c 168.97523,0 337.95045,0 512.04614,0 0,94.830712 0,189.66142 0,287.3658 -168.97523,0 -337.95045,0 -512.04614,0 C 0,192.53509 0,97.70437 0,0 Z"
     fill="#4b678f"
     id="path1"
     style="stroke-width:0.749207" />
  <path
     d="m 311,0 c 19.14,0 38.28,0 58,0 -2.35,18.83 -2.35,18.83 -4.31,28 -0.22,1.03 -0.44,2.06 -0.66,3.12 -1.7,7.77 -3.73,15.31 -6.32,22.83 -0.79,2.27 -1.54,4.56 -2.3,6.84 -10.07,29.98 -24.8,56.43 -44.41,81.21 -0.43,0.7 -0.86,1.41 -1.3,2.13 -1.7,1.87 -1.7,1.87 -4.11,2.35 -0.95,-0.01 -1.91,-0.02 -2.89,-0.03 -1.08,0 -2.16,0 -3.27,0 -1.75,-0.03 -1.75,-0.03 -3.54,-0.06 -1.19,-0.01 -2.38,-0.01 -3.61,-0.02 -3.83,-0.02 -7.65,-0.07 -11.47,-0.12 -2.59,-0.02 -5.17,-0.04 -7.76,-0.05 -6.35,-0.05 -12.7,-0.12 -19.05,-0.2 1.12,-1.76 2.23,-3.51 3.35,-5.26 0.62,-0.98 1.24,-1.96 1.88,-2.97 1.4,-2.18 2.8,-4.36 4.22,-6.54 C 273.89,115.09 282.86,97.86 290,80 c 0.35,-0.86 0.69,-1.71 1.05,-2.59 C 301.2,52.09 306.85,26.89 311,0 Z"
     fill="#fefefe"
     id="path2" />
  <path
     d="m 215,0 c 19.14,0 38.28,0 58,0 -0.33,2.31 -0.66,4.62 -1,7 -0.11,0.83 -0.22,1.65 -0.34,2.51 C 268.22,34.79 260.95,59.52 251,83 c -0.3,0.72 -0.6,1.43 -0.92,2.17 -7.79,18.19 -18.1,35.62 -30.64,50.93 -1.48,1.87 -1.48,1.87 -2.59,3.97 -2.03,3.41 -3.53,5.58 -7.47,6.63 -3.29,0.23 -6.49,0.2 -9.78,0.08 -1.19,-0.01 -2.38,-0.02 -3.6,-0.03 -3.8,-0.05 -7.58,-0.15 -11.38,-0.25 -2.57,-0.04 -5.14,-0.08 -7.72,-0.11 -6.3,-0.09 -12.6,-0.22 -18.9,-0.39 0.48,-0.76 0.96,-1.51 1.46,-2.29 0.63,-0.99 1.26,-1.98 1.91,-3 0.63,-0.99 1.25,-1.97 1.9,-2.98 21.56,-33.91 36.92,-69.36 46.48,-108.48 0.28,-1.13 0.28,-1.13 0.57,-2.28 C 212.4,18.03 213.56,9.12 215,0 Z"
     fill="#fefefe"
     id="path3" />
  <path
     d="m 92.8125,190.6875 c 1.06,0.01 1.06,0.01 2.14,0.02 9.41,0.21 16.9,3.12 24.05,9.29 9.49,10.98 10,22.83 10,37 -18.48,0 -36.96,0 -56,0 1.9,11.3 1.9,11.3 7,21 6.61,4.46 14.22,4.85 22,4 6.21,-2.09 11.22,-5.59 16,-10 3.43,1.53 6.12,3.6 9,6 -2.52,5.97 -8.01,9.56 -13.71,12.31 -10.82,4.34 -22.57,5.83 -34,2.67 -9,-4.18 -15.04,-10.63 -19.29,-19.54 -4.37,-12.56 -4.06,-29.39 0.68,-41.82 4.58,-9.11 11.66,-15.85 21.14,-19.79 3.7,-0.96 7.19,-1.17 10.99,-1.14 z"
     fill="#f9fafb"
     id="path4" />
  <path
     d="m 387,165 c 21.78,0 43.56,0 66,0 0,4.29 0,8.58 0,13 -14.19,0 -28.38,0 -43,0 0,10.56 0,21.12 0,32 12.21,0 24.42,0 37,0 0,3.96 0,7.92 0,12 -12.21,0 -24.42,0 -37,0 0,12.21 0,24.42 0,37 14.52,0 29.04,0 44,0 0,3.96 0,7.92 0,12 -21.12,0 -42.24,0 -64,0 -0.33,-31.35 -0.66,-62.7 -1,-95 -0.66,-0.33 -1.32,-0.66 -2,-1 0,-3.3 0,-6.6 0,-10 z"
     fill="#fdfdfe"
     id="path5" />
  <path
     d="m 200.3125,196.5 c 5.46,4.55 7.31,10.86 8.03,17.8 0.12,3.64 0.11,7.26 0.05,10.9 -0.01,1.32 -0.01,2.63 -0.02,3.99 -0.01,3.46 -0.05,6.92 -0.1,10.38 -0.04,3.55 -0.06,7.09 -0.08,10.64 -0.04,6.93 -0.11,13.86 -0.19,20.79 -4.95,0 -9.9,0 -15,0 -0.01,-1.76 -0.02,-3.51 -0.03,-5.32 -0.04,-5.82 -0.09,-11.63 -0.16,-17.45 -0.04,-3.52 -0.07,-7.05 -0.08,-10.57 -0.02,-4.06 -0.07,-8.11 -0.12,-12.17 0,-1.26 -0.01,-2.52 -0.01,-3.81 -0.09,-8.66 -0.09,-8.66 -4.6,-15.68 -4.41,-2.94 -7.76,-3.54 -13,-3 -5.62,1.21 -9.02,3.49 -12.68,7.89 -4.43,7.06 -4.79,12.96 -4.83,21.17 -0.02,1.14 -0.04,2.29 -0.06,3.47 -0.05,3.63 -0.09,7.27 -0.12,10.91 -0.03,2.47 -0.07,4.94 -0.1,7.42 -0.09,6.04 -0.16,12.09 -0.21,18.14 -4.95,0 -9.9,0 -15,0 0,-26.07 0,-52.14 0,-79 4.29,0 8.58,0 13,0 1.48,2.96 1.06,5.74 1,9 0.7,-0.54 1.4,-1.09 2.12,-1.64 13.41,-10.12 27.15,-13.44 42.19,-3.86 z"
     fill="#f9fafb"
     id="path6" />
  <path
     d="m 253.875,190.625 c 0.79,0.01 1.58,0.02 2.39,0.04 9.89,0.27 16.57,2.17 23.88,9.13 2.72,3.23 3.77,6.15 4.85,10.21 -8.42,3.42 -8.42,3.42 -13,3 -0.51,-1.1 -1.03,-2.19 -1.56,-3.32 -1.87,-3.19 -3.63,-5 -7.25,-6.25 -6.13,-1.22 -12.68,-1.68 -18.31,1.38 -3.26,2.48 -4.69,3.97 -5.31,8.06 0.45,3.22 1.06,4.82 3.52,6.97 5.6,3.37 12.47,4.54 18.75,6.12 19.36,4.9 19.36,4.9 23.73,11.16 3.14,6.29 3.71,12.86 1.56,19.61 -4.02,8.71 -9.53,13.02 -18.34,16.43 -4.61,1.38 -9.01,1.42 -13.79,1.34 -1.38,0.02 -1.38,0.02 -2.78,0.04 -8.15,-0.04 -16.62,-2.15 -22.83,-7.78 -3.21,-4.09 -5.55,-8.92 -7.39,-13.76 0.34,-0.66 0.66,-1.32 1,-2 1.93,-0.64 1.93,-0.64 4.32,-1.13 1.17,-0.25 1.17,-0.25 2.36,-0.51 2.32,-0.36 2.32,-0.36 6.32,-0.36 0.21,0.6 0.42,1.2 0.63,1.82 0.47,1.2 0.47,1.2 0.94,2.42 0.29,0.79 0.58,1.58 0.88,2.4 2.19,3.31 4.91,4.98 8.55,6.36 2.89,0.52 5.65,0.56 8.57,0.5 0.73,0.01 1.46,0.03 2.21,0.04 6.17,-0.04 9.83,-2.15 14.22,-6.54 0.44,-2.3 0.44,-2.3 0.44,-4.88 0.04,-0.86 0.08,-1.73 0.12,-2.62 -0.37,-2.69 -0.37,-2.69 -2.68,-4.7 -3.11,-1.95 -5.76,-2.89 -9.31,-3.8 -1.23,-0.34 -2.46,-0.67 -3.73,-1.01 -2.5,-0.65 -5.01,-1.29 -7.51,-1.92 -8.38,-2.22 -17.7,-4.71 -22.95,-12.2 -2.86,-6.09 -2.02,-13.3 -0.44,-19.63 6.65,-10.48 15.83,-14.85 27.94,-14.62 z"
     fill="#fafbfc"
     id="path7" />
  <path
     d="m 345,165 c 7.92,0 15.84,0 24,0 0,34.98 0,69.96 0,106 -6.93,0 -13.86,0 -21,0 -0.02,-2.87 -0.04,-5.73 -0.06,-8.69 -0.07,-9.45 -0.14,-18.91 -0.23,-28.37 -0.05,-5.73 -0.09,-11.47 -0.13,-17.2 -0.04,-5.53 -0.08,-11.06 -0.14,-16.59 -0.02,-2.12 -0.03,-4.23 -0.04,-6.34 -0.02,-2.96 -0.05,-5.91 -0.08,-8.86 0,-0.88 -0.01,-1.76 -0.01,-2.67 0.15,-4.62 0.15,-4.62 -2.31,-8.28 0,-2.97 0,-5.94 0,-9 z"
     fill="#fdfdfe"
     id="path8" />
  <path
     d="m 304,166 c 7.59,0 15.18,0 23,0 0,34.65 0,69.3 0,105 -6.93,0 -13.86,0 -21,0 0,-31.68 0,-63.36 0,-96 -0.66,0 -1.32,0 -2,0 0,-2.97 0,-5.94 0,-9 z"
     fill="#fcfcfd"
     id="path9" />
  <path
     d="m 212,165 c 24.09,0 48.18,0 73,0 0,3.96 0,7.92 0,12 -24.09,0 -48.18,0 -73,0 0,-3.96 0,-7.92 0,-12 z"
     fill="#f5f7f9"
     id="path10" />
  <path
     d="m 137,165 c 23.76,0 47.52,0 72,0 0,3.96 0,7.92 0,12 -23.76,0 -47.52,0 -72,0 0,-3.96 0,-7.92 0,-12 z"
     fill="#f7f8fa"
     id="path11" />
  <path
     d="m 61,165 c 23.76,0 47.52,0 72,0 0,3.96 0,7.92 0,12 -23.76,0 -47.52,0 -72,0 0,-3.96 0,-7.92 0,-12 z"
     fill="#f7f8fa"
     id="path12" />
  <path
     d="m 101.35938,202.94141 c 5.28,3.17 8.75,6.62 10.89,12.5 0.75,3.56 0.75,3.56 0.75,9.56 -12.87001,0 -25.740005,0 -39.000005,0 0,-6.24 0.02,-10.6 3,-16 6.53,-6.52 15.4,-9.63 24.360005,-6.06 z"
     fill="#4d6990"
     id="path13" />
</svg>
