<?xml version="1.0" encoding="UTF-8"?>
<!-- Generator: Adobe Illustrator 13.0.0, SVG Export Plug-In . SVG Version: 6.00 Build 14948)  -->
<!DOCTYPE svg PUBLIC "-//W3C//DTD SVG 1.1//EN" "http://www.w3.org/Graphics/SVG/1.1/DTD/svg11.dtd">
<svg version="1.1" id="Layer_1" xmlns="http://www.w3.org/2000/svg" xmlns:xlink="http://www.w3.org/1999/xlink" x="0px" y="0px" width="605.77px" height="153.043px" viewBox="0 0 605.77 153.043" enable-background="new 0 0 605.77 153.043" xml:space="preserve">
<g>
	<g>
		<path fill="#4A4647" d="M71.756,43.478c6.889,3.605,12.138,8.27,15.746,13.995c3.476,5.458,5.793,11.823,6.956,19.099    c1.03,4.985,1.545,12.974,1.545,23.968h-75.69c0.32,10.991,2.793,19.806,7.416,26.446c4.623,6.642,11.782,9.962,21.477,9.962    c9.051,0,16.273-3.105,21.668-9.321c2.988-3.604,5.105-7.781,6.351-12.524h17.246c-0.455,3.953-1.967,8.354-4.533,13.207    s-5.422,8.82-8.566,11.898c-5.267,5.356-11.785,8.971-19.551,10.845c-4.173,1.071-8.892,1.608-14.156,1.608    c-12.868,0-23.773-4.904-32.716-14.717C6.004,128.135,1.534,114.396,1.534,96.73c0-17.396,4.506-31.519,13.521-42.375    s20.8-16.285,35.354-16.285C57.75,38.071,64.864,39.874,71.756,43.478z M77.99,85.976c-0.707-7.919-2.344-14.249-4.91-18.992    c-4.751-8.799-12.68-13.201-23.785-13.201c-7.961,0-14.638,3.03-20.03,9.09s-8.249,13.761-8.569,23.103H77.99z"/>
		<path fill="#4A4647" d="M138.247,40.37h16.479v15.593c4.938-6.371,10.168-10.946,15.689-13.725    c5.521-2.779,11.662-4.168,18.417-4.168c14.812,0,24.818,5.362,30.016,16.081c2.856,5.869,4.287,14.264,4.287,25.186v69.489    h-17.82V80.62c0-6.599-0.943-11.922-2.824-15.964c-3.114-6.737-8.757-10.105-16.931-10.105c-4.153,0-7.56,0.44-10.219,1.314    c-4.803,1.482-9.018,4.446-12.65,8.892c-2.919,3.572-4.817,7.261-5.692,11.066c-0.877,3.805-1.314,9.246-1.314,16.317v56.687    h-17.437V40.37z"/>
		<path fill="#4A4647" d="M279.368,114.91c0.527,6.081,2.009,10.743,4.449,13.985c4.479,5.88,12.258,8.817,23.332,8.817    c6.59,0,12.39-1.467,17.398-4.406c5.009-2.941,7.515-7.486,7.515-13.636c0-4.661-2.006-8.209-6.018-10.641    c-2.566-1.485-7.629-3.207-15.192-5.165l-14.104-3.644c-9.012-2.293-15.653-4.856-19.925-7.689    c-7.629-4.925-11.443-11.74-11.443-20.44c0-10.251,3.59-18.551,10.772-24.893c7.18-6.341,16.839-9.512,28.973-9.512    c15.872,0,27.318,4.779,34.336,14.333c4.396,6.06,6.527,12.587,6.398,19.584H329.38c-0.329-4.066-1.748-7.767-4.251-11.102    c-4.09-4.734-11.177-7.102-21.264-7.102c-6.728,0-11.82,1.312-15.281,3.928c-3.461,2.62-5.192,6.078-5.192,10.375    c0,4.701,2.272,8.461,6.824,11.282c2.623,1.68,6.494,3.159,11.614,4.44l11.711,2.935c12.731,3.173,21.262,6.242,25.594,9.209    c6.781,4.656,10.174,11.976,10.174,21.958c0,9.646-3.554,17.977-10.656,24.991c-7.102,7.015-17.919,10.524-32.452,10.524    c-15.646,0-26.724-3.659-33.236-10.974c-6.515-7.317-10-16.368-10.458-27.159H279.368z"/>
		<path fill="#4A4647" d="M388.619,40.945h17.82v107.882h-17.82V40.945z"/>
		<path fill="#4A4647" d="M452.93,40.945h17.821v107.882H452.93V40.945z"/>
		<path fill="#4A4647" d="M581.524,43.478c6.889,3.605,12.138,8.27,15.745,13.995c3.477,5.458,5.794,11.823,6.955,19.099    c1.03,4.985,1.545,12.974,1.545,23.968H530.08c0.32,10.991,2.793,19.806,7.416,26.446c4.623,6.642,11.782,9.962,21.477,9.962    c9.051,0,16.272-3.105,21.668-9.321c2.988-3.604,5.105-7.781,6.351-12.524h17.246c-0.455,3.953-1.968,8.354-4.533,13.207    c-2.566,4.854-5.423,8.82-8.566,11.898c-5.267,5.356-11.784,8.971-19.551,10.845c-4.174,1.071-8.893,1.608-14.156,1.608    c-12.868,0-23.772-4.904-32.716-14.717c-8.943-9.809-13.413-23.548-13.413-41.213c0-17.396,4.506-31.519,13.521-42.375    c9.016-10.856,20.8-16.285,35.354-16.285C567.518,38.071,574.632,39.874,581.524,43.478z M587.758,85.976    c-0.707-7.919-2.345-14.249-4.91-18.992c-4.752-8.799-12.68-13.201-23.785-13.201c-7.961,0-14.638,3.03-20.03,9.09    s-8.249,13.761-8.569,23.103H587.758z"/>
	</g>
</g>
<rect y="0.383" fill="#4A4647" width="350.856" height="20.695"/>
<rect x="509.52" y="0.383" fill="#4A4647" width="96.002" height="20.695"/>
<rect x="388.569" y="0.239" fill="#91BE3E" width="17.791" height="20.664"/>
<rect x="453.18" fill="#91BE3E" width="17.632" height="21.078"/>
</svg>