<?xml version="1.0" encoding="UTF-8" standalone="no"?>
<!-- Generator: Adobe Illustrator 12.0.1, SVG Export Plug-In . SVG Version: 6.00 Build 51448)  -->

<svg
   version="1.1"
   id="svg1668"
   width="376"
   height="277"
   viewBox="0 0 375.99999 276.99998"
   overflow="visible"
   enable-background="new 0 0 841.89 595.275"
   xml:space="preserve"
   sodipodi:docname="ibisc.svg"
   inkscape:version="1.4.2 (ebf0e940d0, 2025-05-08)"
   xmlns:inkscape="http://www.inkscape.org/namespaces/inkscape"
   xmlns:sodipodi="http://sodipodi.sourceforge.net/DTD/sodipodi-0.dtd"
   xmlns="http://www.w3.org/2000/svg"
   xmlns:svg="http://www.w3.org/2000/svg"><defs
   id="defs4" /><sodipodi:namedview
   id="namedview4"
   pagecolor="#ffffff"
   bordercolor="#000000"
   borderopacity="0.25"
   inkscape:showpageshadow="2"
   inkscape:pageopacity="0.0"
   inkscape:pagecheckerboard="0"
   inkscape:deskcolor="#d1d1d1"
   inkscape:zoom="1.0963427"
   inkscape:cx="420.94501"
   inkscape:cy="297.35227"
   inkscape:window-width="1276"
   inkscape:window-height="1413"
   inkscape:window-x="0"
   inkscape:window-y="0"
   inkscape:window-maximized="0"
   inkscape:current-layer="svg1668" />
<path
   id="path1721"
   fill="#18447a"
   d="m 282.69464,5.0136417 c -34.441,-3.212 -60.697,51.0270003 -33.662,59.9920003 22.463,3.777 22.617,-12.018 15.352,-19.027 -7.514,-7.25 -18.959,-14.506 5.561,-28.201 27.811,-15.5330003 75.721,31.918 86.533,53.28 -19.409,-43.27 -39.342,-62.8320003 -73.784,-66.0440003 z M 61.892636,276.81064 c 28.243,-94.81 240.451004,-42.917 171.158004,-147.08 -58.138,-87.395998 -4.389,-125.7329983 30.791,-127.3959983 -35.404,19.9360003 -72.081,45.5070003 -0.393,132.4579983 81.836,99.257 -150.766,58.173 -201.556004,142.018 z" />
<g
   enable-background="new    "
   id="g3"
   transform="translate(-238.97636,-165.09436)">
	<path
   d="m 281.345,338.812 -1.227,5.047 c -5.014,1.945 -9.02,3.299 -12.016,4.061 -2.996,0.76 -5.557,1.143 -7.682,1.143 -4.359,0 -7.627,-1.08 -9.807,-3.238 -2.18,-2.16 -3.27,-4.826 -3.27,-8.002 0,-1.195 0.107,-2.445 0.326,-3.746 0.219,-1.301 0.572,-2.939 1.063,-4.918 l 8.637,-33.174 c 0.434,-1.82 0.855,-3.771 1.264,-5.854 0.409,-2.083 0.613,-3.852 0.613,-5.309 0,-2.914 -0.502,-4.852 -1.506,-5.814 -1.004,-0.962 -3.051,-1.445 -6.137,-1.445 -1.191,0 -2.775,0.186 -4.752,0.553 -1.977,0.369 -3.48,0.686 -4.508,0.947 l 1.229,-5.113 c 4.256,-1.863 8.076,-3.246 11.459,-4.152 3.383,-0.906 6.057,-1.359 8.021,-1.359 4.475,0 7.721,1.018 9.74,3.053 2.018,2.035 3.027,4.773 3.027,8.215 0,0.939 -0.109,2.217 -0.328,3.834 -0.219,1.617 -0.545,3.234 -0.979,4.852 l -8.738,33.254 c -0.545,2.035 -1.021,4.029 -1.43,5.984 -0.408,1.957 -0.611,3.561 -0.611,4.813 0,2.973 0.689,5.008 2.068,6.104 1.379,1.096 3.611,1.643 6.695,1.643 1.027,0 2.502,-0.135 4.424,-0.404 1.923,-0.274 3.398,-0.597 4.425,-0.975 z m 5.75,-99.985 c 0,2.973 -1.008,5.568 -3.023,7.785 -2.015,2.217 -4.52,3.324 -7.516,3.324 -2.777,0 -5.174,-1.055 -7.189,-3.168 -2.015,-2.113 -3.021,-4.525 -3.021,-7.238 0,-2.867 1.006,-5.371 3.021,-7.51 2.015,-2.139 4.412,-3.209 7.189,-3.209 3.104,0 5.637,1.006 7.598,3.014 1.961,2.008 2.941,4.342 2.941,7.002 z"
   id="path1" />
	<path
   d="m 372.792,298.354 c 0,6.945 -1.305,13.59 -3.912,19.934 -2.607,6.344 -6.057,11.814 -10.348,16.408 -4.402,4.699 -9.373,8.395 -14.914,11.082 -5.541,2.687 -11.408,4.033 -17.6,4.033 -4.672,0 -8.787,-0.379 -12.346,-1.135 -3.559,-0.758 -6.588,-1.785 -9.086,-3.09 -2.555,-1.355 -4.674,-2.881 -6.357,-4.576 -1.683,-1.695 -3.205,-3.586 -4.563,-5.672 l 21.088,-88.557 c 0.271,-1.199 0.502,-2.229 0.693,-3.09 0.191,-0.859 0.287,-1.732 0.287,-2.619 0,-1.877 -0.328,-3.324 -0.982,-4.342 -0.656,-1.016 -1.584,-1.785 -2.785,-2.309 -1.148,-0.469 -2.598,-0.781 -4.348,-0.938 -1.75,-0.157 -3.525,-0.34 -5.328,-0.549 l 1.143,-4.75 30.301,-1.75 0.816,1.168 -12.383,51.857 h 0.326 c 4.883,-4.17 9.182,-7.051 12.898,-8.641 3.716,-1.59 7.338,-2.385 10.865,-2.385 8.246,0 14.73,2.703 19.451,8.107 4.721,5.404 7.084,12.678 7.084,21.814 z m -16.75,0.303 c 0,-2.777 -0.258,-5.566 -0.773,-8.369 -0.515,-2.803 -1.371,-5.146 -2.564,-7.033 -1.248,-1.99 -2.957,-3.563 -5.127,-4.715 -2.172,-1.152 -4.857,-1.729 -8.059,-1.729 -1.898,0 -3.689,0.314 -5.371,0.943 -1.684,0.629 -3.42,1.467 -5.209,2.514 -1.574,0.943 -3.107,2.082 -4.6,3.418 -1.493,1.336 -2.863,2.529 -4.109,3.576 l -10.92,46.598 c 0.162,1.049 0.65,2.201 1.467,3.459 0.817,1.258 1.85,2.357 3.1,3.299 1.523,1.205 3.236,2.121 5.139,2.75 1.903,0.629 3.996,0.943 6.279,0.943 4.295,0 8.332,-1.217 12.111,-3.654 3.779,-2.436 7.027,-5.723 9.746,-9.861 2.99,-4.504 5.219,-9.533 6.688,-15.086 1.469,-5.553 2.202,-11.236 2.202,-17.053 z"
   id="path2" />
	<path
   d="m 423.58,338.812 -1.227,5.047 c -5.013,1.945 -9.019,3.299 -12.015,4.061 -2.996,0.76 -5.557,1.143 -7.682,1.143 -4.359,0 -7.627,-1.08 -9.807,-3.238 -2.18,-2.16 -3.27,-4.826 -3.27,-8.002 0,-1.195 0.107,-2.445 0.326,-3.746 0.219,-1.301 0.572,-2.939 1.063,-4.918 l 8.637,-33.174 c 0.434,-1.82 0.855,-3.771 1.264,-5.854 0.409,-2.083 0.613,-3.852 0.613,-5.309 0,-2.914 -0.502,-4.852 -1.506,-5.814 -1.004,-0.962 -3.051,-1.445 -6.137,-1.445 -1.191,0 -2.775,0.186 -4.752,0.553 -1.977,0.369 -3.48,0.686 -4.508,0.947 l 1.229,-5.113 c 4.256,-1.863 8.076,-3.246 11.459,-4.152 3.383,-0.906 6.057,-1.359 8.021,-1.359 4.475,0 7.721,1.018 9.74,3.053 2.018,2.035 3.027,4.773 3.027,8.215 0,0.939 -0.109,2.217 -0.328,3.834 -0.219,1.617 -0.545,3.234 -0.979,4.852 l -8.738,33.254 c -0.545,2.035 -1.021,4.029 -1.43,5.984 -0.408,1.957 -0.611,3.561 -0.611,4.813 0,2.973 0.689,5.008 2.068,6.104 1.379,1.096 3.611,1.643 6.695,1.643 1.027,0 2.502,-0.135 4.424,-0.404 1.922,-0.274 3.396,-0.597 4.424,-0.975 z m 5.75,-99.985 c 0,2.973 -1.008,5.568 -3.023,7.785 -2.015,2.217 -4.52,3.324 -7.515,3.324 -2.777,0 -5.174,-1.055 -7.189,-3.168 -2.015,-2.113 -3.021,-4.525 -3.021,-7.238 0,-2.867 1.006,-5.371 3.021,-7.51 2.015,-2.139 4.412,-3.209 7.189,-3.209 3.103,0 5.636,1.006 7.597,3.014 1.961,2.008 2.941,4.342 2.941,7.002 z"
   id="path3" />
</g>
<g
   enable-background="new    "
   id="g4"
   transform="translate(-238.97636,-165.09436)">
	<path
   d="m 575.412,349.006 c -8.906,0 -15.939,-2.613 -21.104,-7.844 -5.165,-5.231 -7.746,-12.664 -7.746,-22.303 0,-6.408 0.979,-12.547 2.938,-18.418 1.957,-5.871 4.691,-11.088 8.201,-15.65 3.51,-4.562 7.947,-8.293 13.314,-11.189 5.367,-2.896 11.33,-4.346 17.893,-4.346 7.273,0 12.805,1.549 16.594,4.645 3.789,3.096 5.686,6.996 5.686,11.703 0,3.531 -0.826,6.627 -2.475,9.287 -1.65,2.66 -4.125,3.99 -7.426,3.99 -2.742,0 -4.797,-0.686 -6.168,-2.061 -1.371,-1.375 -2.057,-2.902 -2.057,-4.582 0,-1.629 0.547,-3.855 1.641,-6.68 1.094,-2.825 1.963,-5.102 2.609,-6.832 -0.563,-1.375 -1.811,-2.379 -3.748,-3.016 -1.937,-0.637 -3.949,-0.955 -6.039,-0.955 -6.934,0 -12.912,4.059 -17.932,12.176 -5.021,8.117 -7.531,18.063 -7.531,29.84 0,7.271 1.619,13.045 4.861,17.32 3.24,4.277 7.617,6.414 13.131,6.414 4.949,0 9.352,-1.328 13.205,-3.984 3.853,-2.656 7.541,-6.412 11.064,-11.266 l 4.363,3.217 c -3.512,5.568 -8.281,10.383 -14.311,14.443 -6.028,4.06 -12.35,6.091 -18.963,6.091 z"
   id="path4" />
</g>
<path
   id="path1731"
   fill="#18447a"
   d="m 42.001636,85.142642 c -6.385,4.441996 -14.851,2.378 -18.909,-4.61 -4.058,-6.988 -2.172,-16.253 4.212,-20.695 6.384,-4.442 14.85,-2.378 18.909,4.61 4.045,6.965 2.186,16.199 -4.16,20.659" />
</svg>
