<?xml version="1.0" encoding="UTF-8" standalone="no"?>
<svg
   version="1.1"
   id="Calque_1"
   x="0px"
   y="0px"
   viewBox="0 0 593.3 174.9"
   xml:space="preserve"
   sodipodi:docname="inria.svg"
   width="593.29999"
   height="174.89999"
   inkscape:version="1.4.2 (ebf0e940d0, 2025-05-08)"
   xmlns:inkscape="http://www.inkscape.org/namespaces/inkscape"
   xmlns:sodipodi="http://sodipodi.sourceforge.net/DTD/sodipodi-0.dtd"
   xmlns="http://www.w3.org/2000/svg"
   xmlns:svg="http://www.w3.org/2000/svg"><defs
   id="defs8">         </defs><sodipodi:namedview
   id="namedview8"
   pagecolor="#ffffff"
   bordercolor="#000000"
   borderopacity="0.25"
   inkscape:showpageshadow="2"
   inkscape:pageopacity="0.0"
   inkscape:pagecheckerboard="0"
   inkscape:deskcolor="#d1d1d1"
   inkscape:zoom="1.4460285"
   inkscape:cx="319.14999"
   inkscape:cy="114.79718"
   inkscape:window-width="1276"
   inkscape:window-height="1413"
   inkscape:window-x="0"
   inkscape:window-y="0"
   inkscape:window-maximized="0"
   inkscape:current-layer="Calque_1" /> <style
   type="text/css"
   id="style1"> .st0{fill:#FEFEFE;} .st1{fill:#E63616;} .st2{fill:#E53616;} .st3{fill:#E63818;} .st4{fill:#FEFBFA;} </style> <path
   class="st1"
   d="m 204.92112,139.26056 c -3.4,-5.3 -3.5,-9.4 -0.7,-12.8 4.3,-5.3 8.7,-10.7 14.1,-14.7 4.9,-3.6 11,-6.9 16.8,-7.7 10.8,-1.4 21.9,-1.2 32.8,-0.9 4.3,0.1 10.2,0.9 10.9,6.1 0.5,3.6 -1.7,8.5 -4.2,11.5 -7.3,8.6 -15.4,16.6 -23.1,24.9 -2.1,2.3 -4.3,4.7 -6,7.3 -2.6,4 -1.2,6.5 3.5,6.2 3.6,-0.2 7.4,-0.7 10.7,-2.2 8.7,-4 17.2,-8.5 25.7,-13.1 1.6,-0.9 2.8,-2.7 4,-4.3 7.5,-9.3 14.7,-18.9 22.7,-27.8 6.5,-7.3 15.6,-9 25,-8.9 0.8,0 1.6,0.3 2.4,0.6 0.4,0.2 0.8,0.6 1.8,1.4 -3.6,3.9 -7.4,7.6 -10.7,11.6 -8.3,10 -16.5,20 -24.4,30.3 -1.9,2.5 -2,6.3 -3,9.6 3.5,-0.1 7.2,0.5 10.4,-0.6 13.2,-4.4 23.6,-13.3 34.4,-21.7 8.9,-7 17.4,-14.5 26.9,-20.6 12.9,-8.3 27.5,-12 42.9,-10.5 4.3,0.4 8.9,1.8 12.7,4 7.5,4.2 9.6,13.3 5.4,20.8 -4.3,7.5 -9,14.8 -13.2,22.3 -1.3,2.3 -1.3,5.2 -1.9,7.9 2.7,0.4 5.5,1.6 7.9,1 19.1,-4.3 38.1,-9.4 57.2,-13.4 20.6,-4.3 41.4,-8.3 62.2,-11.4 10,-1.5 20.3,-0.7 30.1,2.8 7,2.5 12.4,6.5 13.9,14.2 0.4,2.1 0.1,4.4 0.1,6.4 -7.6,-2.1 -14.2,-4.6 -20.9,-5.7 -19.7,-3 -39.2,-0.2 -58.5,3.5 -27.4,5.2 -54.7,11.3 -82,17 -3.4,0.7 -6.9,1.2 -10.4,1.3 -12.4,0.6 -18.5,-3.8 -21.7,-15.2 -7.3,4 -14.3,9 -22.2,11.7 -7,2.4 -15,3.5 -22.4,3 -10.8,-0.7 -14.3,-5.5 -14.6,-17 -1.5,0.8 -2.6,1.5 -3.8,2.2 -10.9,6.9 -22.1,13 -35.1,14.9 -2.8,0.4 -5.6,0.5 -8.5,0.4 -8.3,-0.4 -11,-3.2 -12.7,-11.9 -8.9,3.5 -17.8,7.6 -27.1,10.3 -4.9,1.5 -10.6,1.5 -15.7,0.7 -12.3,-1.8 -17.1,-11.5 -11,-22.4 3.4,-6 8.3,-11.2 12.7,-16.6 2.4,-2.9 5.3,-5.5 8.1,-8.2 2.6,-2.5 5.3,-4.8 8,-7.3 -21.1,-4.9 -36.7,3.9 -49.5,21 z m 163.9,20.6 c 1.7,-0.6 4.8,-1.3 7.5,-2.7 15.2,-7.7 27.4,-18.8 36.7,-32.9 1.6,-2.4 1.6,-5.7 2.3,-8.6 -2.9,0 -5.9,-0.7 -8.7,0 -13,3.2 -23.4,11.1 -32.4,20.6 -4.6,4.9 -8.4,10.7 -11.7,16.6 -2.2,4.1 0.1,6.9 6.3,7 z"
   id="path2" /><path
   class="st2"
   d="m 120.12112,123.26056 c 10.7,-7.1 21.2,-14.5 33.8,-17.8 5.6,-1.5 11.4,-2.4 17.2,-2.5 8.9,-0.1 13,5.8 8.6,13.4 -5,8.7 -11.7,16.5 -17.7,24.6 -3.7,5 -7.5,10 -10.5,15.8 18.5,2 30.9,-9.2 44.1,-19.5 2.6,4.6 3.2,9 -0.3,12.7 -14.5,15.4 -32.4,23.8 -53.6,23.6 -11.7,-0.1 -16.8,-8.6 -11.1,-18.7 4.8,-8.5 11.4,-15.9 17.3,-23.7 2.6,-3.5 5.3,-6.9 8,-10.4 -0.4,-0.5 -0.7,-1.1 -1.1,-1.6 -2.9,0.8 -5.9,1.2 -8.7,2.3 -14.6,6.1 -27.5,15 -39.49999,25 -7.800003,6.5 -14.800003,13.8 -21.900003,21.1 -5.2,5.3 -16.6,7.9 -23.8,4.3 2.7,-3.9 5.3,-7.8 8,-11.7 -0.2,-0.2 -0.3,-0.5 -0.5,-0.7 -1.2,0.6 -2.5,1.1 -3.7,1.7 -11.6,6.4 -23.6,11.7 -37,12.8 -4.099999,0.3 -8.399999,0.3 -12.399999,-0.6 -11.0000005,-2.4 -16.0000005,-12 -13.1000005,-24.6 3.1,-13.6 10.3000005,-25.2 18.1000005,-36.4 15.399999,-22.099995 33.999999,-41.399995 52.299999,-60.999995 8.6,-9.2 18.8,-12.6 30.700003,-12.7 2,0 3.9,1.2 5.9,1.8 -1,1.8 -1.7,3.8 -3.1,5.2 -28.100003,28.1 -54.500003,57.599995 -75.300003,91.599995 -2,3.2 -3.6,6.8 -4.8,10.4 -2.499999,7.9 2,13.3 10.1,11.5 7.9,-1.8 15.8,-4.3 22.9,-8 18,-9.2 33.3,-22 45.200003,-38.5 6.2,-8.6 15.29999,-9.8 24.89999,-9.7 1,0 2,0.9 3.7,1.7 -4.8,6.1 -9.3,11.8 -13.8,17.5 -0.3,0.3 -0.6,0.6 -0.9,1 -0.4,0.4 -0.8,0.7 -1.2,1.1 0.1,0.2 0.2,0.3 0.3,0.5 0.5,-0.3 1,-0.6 1.6,-0.9 0.4,-0.2 0.9,-0.4 1.3,-0.6 z"
   id="path3" /><path
   class="st3"
   d="m 384.42112,63.260565 c -4.2,4 -7.2,7.2 -10.7,9.9 -7.4,5.7 -14.7,11.5 -22.5,16.5 -5.8,3.7 -12.5,5.1 -20.9,2.8 9.7,-10.6 18.1,-21.2 30.1,-27.3 6.7,-3.5 14.6,-4.7 24,-1.9 z"
   id="path4" /><path
   class="st1"
   d="m 97.721127,28.360565 c 5.500003,-16.4 35.299993,-32.1000054 46.799993,-24.8000004 -11.3,14.3000004 -31.49999,28.5000004 -46.799993,24.8000004 z"
   id="path5" /><path
   class="st4"
   d="m 368.82112,159.86056 c -6.2,0 -8.5,-2.9 -6.2,-7.2 3.3,-5.9 7.1,-11.7 11.7,-16.6 9,-9.5 19.4,-17.3 32.4,-20.6 2.7,-0.7 5.8,0 8.7,0 -0.7,2.9 -0.8,6.3 -2.3,8.6 -9.4,14.1 -21.6,25.2 -36.7,32.9 -2.8,1.6 -5.9,2.3 -7.6,2.9 z"
   id="path6" /><path
   class="st0"
   d="m 118.82112,123.96056 c -0.5,0.3 -1,0.6 -1.6,0.9 -0.1,-0.2 -0.2,-0.3 -0.3,-0.5 0.4,-0.4 0.8,-0.7 1.2,-1.1 0.3,0.2 0.5,0.4 0.7,0.7 z"
   id="path7" /><path
   class="st0"
   d="m 120.12112,123.26056 c -0.4,0.2 -0.9,0.5 -1.3,0.7 -0.2,-0.2 -0.4,-0.4 -0.6,-0.7 0.3,-0.3 0.6,-0.6 0.9,-1 0.3,0.3 0.6,0.7 1,1 z"
   id="path8" /> </svg>
