<?xml version="1.0" encoding="UTF-8" standalone="no"?>
<!-- Created with Inkscape (http://www.inkscape.org/) -->

<svg
   width="1128"
   height="376"
   viewBox="0 0 1128 376"
   version="1.1"
   id="svg1"
   inkscape:version="1.4.2 (ebf0e940d0, 2025-05-08)"
   sodipodi:docname="signature.svg"
   xmlns:inkscape="http://www.inkscape.org/namespaces/inkscape"
   xmlns:sodipodi="http://sodipodi.sourceforge.net/DTD/sodipodi-0.dtd"
   xmlns="http://www.w3.org/2000/svg"
   xmlns:svg="http://www.w3.org/2000/svg">
  <sodipodi:namedview
     id="namedview1"
     pagecolor="#ffffff"
     bordercolor="#000000"
     borderopacity="0.25"
     inkscape:showpageshadow="2"
     inkscape:pageopacity="0.0"
     inkscape:pagecheckerboard="0"
     inkscape:deskcolor="#d1d1d1"
     inkscape:document-units="px"
     inkscape:zoom="0.81826241"
     inkscape:cx="782.75623"
     inkscape:cy="-101.43445"
     inkscape:window-width="2556"
     inkscape:window-height="1413"
     inkscape:window-x="0"
     inkscape:window-y="0"
     inkscape:window-maximized="0"
     inkscape:current-layer="layer1" />
  <defs
     id="defs1" />
  <g
     inkscape:label="Layer 1"
     inkscape:groupmode="layer"
     id="layer1">
    <path
       style="fill:#000000;stroke-width:3.98623"
       d="m 131.75915,258.30122 c 6.98568,-30.37612 47.03011,-110.33502 47.07576,-93.9988 0.009,3.15678 -1.71333,7.32262 -3.82705,9.25742 -8.45299,7.73753 -35.07175,77.06919 -37.5984,97.92939 -2.44645,20.19769 -1.94977,22.2158 5.42804,22.05664 7.37624,-0.1592 34.48271,-25.99304 49.35466,-47.03763 8.40113,-11.88796 13.8351,-10.33743 6.48873,1.8515 -12.00559,19.91939 -48.17024,52.76725 -58.09541,52.76725 -13.21994,0 -15.79816,-12.50986 -8.82633,-42.82577 z m 52.8043,-112.82553 c 12.04198,-22.53124 47.53636,-59.120701 57.35125,-59.120701 8.29573,0 6.789,10.370076 -3.27958,22.571901 -8.55352,10.36572 -25.26237,15.91439 -18.4476,6.12609 9.48903,-13.62947 -12.63091,7.62378 -24.38352,23.42814 -7.45608,10.02663 -14.32075,18.23021 -15.25483,18.23021 -2.05507,0 -2.18483,0.36328 4.01428,-11.23564 z m 31.34587,74.28772 c 5.81698,-7.07232 14.3218,-15.86989 18.8996,-19.55011 4.57776,-3.68026 16.12537,-15.60878 25.66132,-26.50775 12.42926,-14.20595 21.14004,-20.47257 30.76671,-22.13396 18.82175,-3.2484 19.21982,-0.75636 1.33378,8.35011 -10.454,5.32256 -18.74763,14.07024 -25.88832,27.30557 -19.67113,36.46067 -12.09984,38.64651 16.6852,4.81691 21.91623,-25.75702 56.13182,-53.84767 65.58866,-53.84767 3.2079,0 5.8326,2.61178 5.8326,5.80399 0,3.96583 -2.51883,5.1141 -7.95329,3.62574 -8.72099,-2.38856 -25.30258,11.57361 -62.46237,52.59494 -20.01983,22.10019 -29.10474,27.27801 -34.54183,19.68657 -1.36176,-1.90137 0.36991,-10.58457 3.84791,-19.29601 3.47808,-8.71145 5.83276,-16.26268 5.23269,-16.78056 -0.60013,-0.51786 -11.57659,10.66486 -24.39217,24.85048 -12.81557,14.18557 -24.79071,25.79195 -26.61143,25.79195 -4.22113,0 -4.46091,0.44089 8.00094,-14.7102 z m 129.54221,-60.79792 c 1.94489,-1.03729 3.39316,1.72846 3.21839,6.14606 -0.65199,16.47793 14.03959,10.74983 52.90809,-20.62843 36.13202,-29.16911 60.33336,-43.32989 74.01209,-43.30627 3.18355,0.002 9.6503,6.25427 14.37059,13.88612 11.2619,18.20853 22.2676,19.17695 44.10028,3.88056 9.59471,-6.72221 34.05456,-23.886577 54.35521,-38.142986 20.30065,-14.256413 46.27786,-30.366722 57.72716,-35.800712 22.12526,-10.500943 53.55516,-19.441603 49.77103,-14.158066 -1.24473,1.737988 -0.30081,4.206643 2.098,5.48587 7.42754,3.961248 4.83078,24.305935 -8.51234,66.690704 -16.32559,51.85871 -16.346,51.29915 1.6036,43.91289 10.66527,-4.38881 13.92309,-7.7855 12.37303,-12.90047 -2.42957,-8.01715 0.15574,-8.63988 11.18786,-2.69473 6.37886,3.43758 13.53356,2.07744 37.48948,-7.12689 100.6795,-38.683026 129.87252,-50.293592 142.79014,-56.790076 7.96794,-4.007157 15.55125,-6.367508 16.85186,-5.245167 3.60263,3.108783 -18.6357,21.980493 -61.37714,52.085383 -123.55597,87.02636 -117.31638,79.75569 -100.86895,117.53781 l 9.31279,21.39279 24.86578,-19.54129 c 14.91819,-11.72377 23.36081,-20.9486 21.10387,-23.05911 -2.06907,-1.93479 -3.71898,-6.93379 -3.66649,-11.10888 0.0906,-7.18703 0.51828,-7.11644 8.03978,1.32609 l 7.94439,8.91721 12.34324,-7.36589 c 18.65126,-11.13023 83.63047,-39.05832 86.03925,-36.97973 1.16198,1.00272 -6.25463,5.0271 -16.48138,8.94309 -18.39817,7.04488 -80.81606,40.26531 -80.81606,43.01241 0,0.78295 2.61144,7.04261 5.80321,13.91041 3.19176,6.86774 7.05511,15.54207 8.58516,19.27626 2.55153,6.22698 4.11471,5.89938 18.87104,-3.95483 8.84897,-5.90935 25.74417,-15.69455 37.54487,-21.74491 24.57296,-12.59882 92.39574,-39.60293 94.62787,-37.67677 0.81979,0.70742 -17.1137,9.56305 -39.85225,19.67923 -48.01463,21.3613 -106.66911,54.80383 -105.38089,60.0842 0.48881,2.00363 1.76121,7.60667 2.82754,12.45112 2.8831,13.09826 24.49325,63.81403 28.9198,67.87042 5.28202,4.84029 4.84509,10.41629 -0.58913,7.51812 -8.44836,-4.50569 -34.19254,-61.00155 -34.19254,-75.03588 0,-10.74216 -5.88817,-10.35806 -24.00454,1.5659 -8.16726,5.37561 -15.9469,8.82692 -17.288,7.66959 -2.58668,-2.23212 24.02462,-24.55636 29.49183,-24.74078 5.80007,-0.19551 3.01629,-20.22329 -4.47107,-32.16694 l -7.32967,-11.69207 -25.68639,19.7269 -25.68643,19.72696 6.87997,16.03443 c 4.50171,10.49157 9.30177,15.85665 13.88571,15.52013 7.8383,-0.5754 9.40089,4.35431 2.54,8.01332 -2.45613,1.30992 -3.14311,5.97759 -1.52658,10.37265 2.60482,7.08215 2.13662,7.4163 -4.1166,2.93793 -4.76522,-3.4127 -7.05576,-3.67402 -7.05576,-0.80505 0,4.90853 -21.35337,12.81931 -25.26935,9.36156 -1.4428,-1.27397 3.63681,-6.84616 11.288,-12.38265 l 13.91123,-10.06636 -7.05262,-15.49322 c -3.87896,-8.5212 -8.36444,-15.49315 -9.96773,-15.49315 -1.60332,0 -5.49876,4.16584 -8.65653,9.25742 -3.1578,5.09156 -7.34615,9.25739 -9.30746,9.25739 -6.6136,0 -3.63,-9.91112 5.01629,-16.66334 4.72027,-3.68624 8.60185,-9.36009 8.62576,-12.60855 0.0656,-8.94745 -18.31411,-52.19332 -22.18263,-52.19332 -1.86312,0 -16.95421,10.07601 -33.53581,22.39111 -27.98823,20.78686 -30.192,23.50632 -30.75732,37.9554 l -0.60893,15.56427 -2.60943,-14.57134 -2.60944,-14.57136 -20.38305,19.60053 c -11.2107,10.78029 -20.38305,18.22301 -20.38305,16.53929 0,-1.68369 9.45717,-11.44535 21.01593,-21.69252 l 21.01594,-18.63129 1.83563,-41.70254 c 2.09834,-47.66963 6.36678,-44.76076 -41.38898,-28.20619 -13.9777,4.84543 -32.16153,8.8098 -40.40846,8.8098 -17.35202,0 -16.75517,-2.38731 1.30336,-5.21307 15.4864,-2.4233 76.02092,-20.87339 81.14851,-24.73298 4.92607,-3.70787 32.42933,-94.834628 32.59264,-107.98941 0.29865,-24.038912 -40.91534,-7.135393 -111.44392,45.707731 -65.43531,49.027099 -78.34176,52.143569 -98.63019,23.815999 -9.05874,-12.64827 -9.57677,-12.82971 -21.47263,-7.52132 -6.70444,2.99178 -31.89532,20.46745 -55.97971,38.83482 -24.0844,18.36742 -46.07002,33.39527 -48.85698,33.39527 -11.71369,0 -21.07806,-18.73435 -11.82977,-23.66661 z m 351.81187,60.29349 29.67724,-23.615 -8.03881,-20.39207 c -4.42137,-11.21562 -8.87898,-22.37632 -9.90583,-24.80159 -1.38893,-3.28034 -6.26266,-2.91952 -19.03288,1.40916 -19.44232,6.59033 -19.43977,6.58326 -21.23253,58.11635 l -1.14449,32.89818 z m 31.62463,-40.68871 c 5.20616,11.00998 6.71515,11.89434 12.24051,7.17346 5.54358,-4.73643 48.82901,-36.02603 107.47809,-77.69237 49.01821,-34.824159 49.43354,-34.668259 -19.64361,-7.37299 -25.96158,10.25851 -61.38203,24.12038 -78.71215,30.80411 -30.39886,11.72399 -31.43512,12.54657 -29.40519,23.34094 1.15724,6.15377 4.77629,16.83987 8.04235,23.74685 z m -123.0658,122.55672 c 1.18008,0 2.14559,0.83317 2.14559,1.85148 0,1.01832 -0.96551,1.85148 -2.14559,1.85148 -1.18007,0 -2.14558,-0.83316 -2.14558,-1.85148 0,-1.01831 0.96551,-1.85148 2.14558,-1.85148 z m 4.29117,-7.40594 c 1.18008,0 2.1456,0.83317 2.1456,1.8515 0,1.01831 -0.96552,1.85147 -2.1456,1.85147 -1.18007,0 -2.14558,-0.83316 -2.14558,-1.85147 0,-1.01833 0.96551,-1.8515 2.14558,-1.8515 z m 52.20923,-9.87458 c 1.57341,1.35777 1.57341,3.57953 0,4.93731 -1.57345,1.35774 -2.86079,0.24699 -2.86079,-2.46867 0,-2.71547 1.28734,-3.82637 2.86079,-2.46864 z M 925.5143,160.41429 c 3.14684,0 4.43419,1.1109 2.8608,2.46866 -1.57346,1.35774 -4.14816,1.35774 -5.72158,0 -1.57342,-1.35776 -0.28625,-2.46866 2.86078,-2.46866 z m 10.72791,-3.70296 c 1.18007,0 2.1456,0.83317 2.1456,1.8515 0,1.01831 -0.96553,1.85146 -2.1456,1.85146 -1.18007,0 -2.14556,-0.83315 -2.14556,-1.85146 0,-1.01833 0.96549,-1.8515 2.14556,-1.8515 z m 55.78522,25.92077 c 1.18004,0 2.14556,0.83318 2.14556,1.85146 0,1.01832 -0.96552,1.8515 -2.14556,1.8515 -1.18007,0 -2.14561,-0.83318 -2.14561,-1.8515 0,-1.01828 0.96554,-1.85146 2.14561,-1.85146 z m 10.72787,-3.70296 c 3.1469,0 4.4342,1.11088 2.8608,2.46864 -1.5734,1.35774 -4.1481,1.35774 -5.72156,0 -1.57339,-1.35776 -0.28623,-2.46864 2.86076,-2.46864 z m 15.0191,-3.70297 c 1.1801,0 2.1456,0.83316 2.1456,1.85148 0,1.01831 -0.9655,1.85149 -2.1456,1.85149 -1.18,0 -2.1456,-0.83318 -2.1456,-1.85149 0,-1.01832 0.9656,-1.85148 2.1456,-1.85148 z"
       id="path1"
       sodipodi:nodetypes="scsssssssssssssssssssssssssssssssssscssssssssssssssscsscscssssssssssssssssssscccsssssssscssssssssscccssscssssssssssssccssssccssssssssssssssssssssssssssssssssssssssssssss" />
  </g>
</svg>
