<?xml version="1.0" encoding="UTF-8"?>
<svg id="logosandtypes_com" data-name="logosandtypes com" xmlns="http://www.w3.org/2000/svg" viewBox="0 0 150 150">
  <defs>
    <style>
      .cls-1 {
        fill: #263068;
      }

      .cls-2 {
        fill: none;
      }
    </style>
  </defs>
  <path class="cls-2" d="M0,0H150V150H0V0Z"/>
  <path id="path590" class="cls-1" d="M74.66,49.41h4.7v-10.12c0-1.26-1.08-2.35-2.35-2.35s-2.35,1.08-2.35,2.35v10.12Z"/>
  <path id="path592" class="cls-1" d="M64.91,49.41h4.7v-10.12c0-1.26-1.08-2.35-2.35-2.35s-2.35,1.08-2.35,2.35v10.12Z"/>
  <path id="path594" class="cls-1" d="M84.42,49.41h4.7v-10.12c0-1.26-1.08-2.35-2.35-2.35s-2.35,1.08-2.35,2.35v10.12Z"/>
  <path id="path596" class="cls-1" d="M78.09,12.19c3.07,.54,4.16,3.25,4.16,5.06v3.97h2.89v2.17c7.41,3.43,12.65,11.2,12.65,19.15v7.05h16.98v-6.86c-.36-22.4-16.26-35.95-37.21-36.31l.54,5.78Z"/>
  <path id="path598" class="cls-1" d="M75.02,17.25v3.97h4.16v-3.97c0-1.08-.9-1.99-1.99-1.99-1.26-.18-2.17,.9-2.17,1.99"/>
  <path id="path600" class="cls-1" d="M80.08,60.43c-17.52-4.52-24.21-8.31-24.21-19.51,0-7.95,5.42-14.81,12.83-17.88v-1.81h2.89v-3.79c0-1.99,1.26-4.7,4.34-5.06l.54-5.78c-21.14,0-39.02,14.63-38.12,34.32,.9,22.04,25.29,28.36,38.3,31.07,10.3,2.17,35.05,7.95,41.19,25.47-.18,0,2.17-28.9-37.76-37.03"/>
  <path id="path602" class="cls-1" d="M74.3,91.14c17.7,5.42,22.22,11.92,22.22,21.32,0,14.27-11.02,20.05-24.93,20.05-13.19,0-24.57-6.14-32.16-14.09l-2.89,5.78c5.6,10.48,21.32,20.05,38.66,20.05h0c22.58,.18,41.73-10.3,41.73-31.43,0-22.58-24.75-31.61-38.48-34.51-10.84-2.35-37.94-9.57-42.82-24.75,0,0-5.42,26.38,38.66,37.58"/>
</svg>